<mxfile host="app.diagrams.net" modified="2023-01-16T02:44:28.382Z" agent="5.0 (Windows NT 10.0; Win64; x64) AppleWebKit/537.36 (KHTML, like Gecko) Chrome/109.0.0.0 Safari/537.36" version="20.8.5" etag="V9dOSQoYqOGGTXBGXDWz" type="github">
  <diagram id="4JabPEKRUdK34d8csLMR" name="Halaman-1">
    <mxGraphModel dx="225" dy="440" grid="1" gridSize="10" guides="1" tooltips="1" connect="1" arrows="1" fold="1" page="1" pageScale="1" pageWidth="827" pageHeight="1169" math="0" shadow="0">
      <root>
        <mxCell id="0" />
        <mxCell id="1" parent="0" />
        <mxCell id="sofHlhuOppqZi0QJz8ZP-1" value="akun" style="swimlane;fontStyle=1;align=center;verticalAlign=top;childLayout=stackLayout;horizontal=1;startSize=26;horizontalStack=0;resizeParent=1;resizeParentMax=0;resizeLast=0;collapsible=1;marginBottom=0;" vertex="1" parent="1">
          <mxGeometry x="230" y="90" width="160" height="86" as="geometry" />
        </mxCell>
        <mxCell id="sofHlhuOppqZi0QJz8ZP-2" value="+ field: type" style="text;strokeColor=none;fillColor=none;align=left;verticalAlign=top;spacingLeft=4;spacingRight=4;overflow=hidden;rotatable=0;points=[[0,0.5],[1,0.5]];portConstraint=eastwest;" vertex="1" parent="sofHlhuOppqZi0QJz8ZP-1">
          <mxGeometry y="26" width="160" height="26" as="geometry" />
        </mxCell>
        <mxCell id="sofHlhuOppqZi0QJz8ZP-3" value="" style="line;strokeWidth=1;fillColor=none;align=left;verticalAlign=middle;spacingTop=-1;spacingLeft=3;spacingRight=3;rotatable=0;labelPosition=right;points=[];portConstraint=eastwest;strokeColor=inherit;" vertex="1" parent="sofHlhuOppqZi0QJz8ZP-1">
          <mxGeometry y="52" width="160" height="8" as="geometry" />
        </mxCell>
        <mxCell id="sofHlhuOppqZi0QJz8ZP-4" value="+ method(type): type" style="text;strokeColor=none;fillColor=none;align=left;verticalAlign=top;spacingLeft=4;spacingRight=4;overflow=hidden;rotatable=0;points=[[0,0.5],[1,0.5]];portConstraint=eastwest;" vertex="1" parent="sofHlhuOppqZi0QJz8ZP-1">
          <mxGeometry y="60" width="160" height="26" as="geometry" />
        </mxCell>
        <mxCell id="sofHlhuOppqZi0QJz8ZP-31" value="" style="edgeStyle=orthogonalEdgeStyle;rounded=0;orthogonalLoop=1;jettySize=auto;html=1;endArrow=none;endFill=0;dashed=1;" edge="1" parent="1" source="sofHlhuOppqZi0QJz8ZP-15">
          <mxGeometry relative="1" as="geometry">
            <mxPoint x="180" y="270" as="targetPoint" />
          </mxGeometry>
        </mxCell>
        <mxCell id="sofHlhuOppqZi0QJz8ZP-15" value="Admin" style="swimlane;fontStyle=1;align=center;verticalAlign=top;childLayout=stackLayout;horizontal=1;startSize=26;horizontalStack=0;resizeParent=1;resizeParentMax=0;resizeLast=0;collapsible=1;marginBottom=0;" vertex="1" parent="1">
          <mxGeometry x="100" y="350" width="160" height="240" as="geometry" />
        </mxCell>
        <mxCell id="sofHlhuOppqZi0QJz8ZP-16" value="- iduser&#xa;- usernamne : string&#xa;- password : string&#xa;- email : String&#xa;- nama : string&#xa;- no_telp: string" style="text;strokeColor=none;fillColor=none;align=left;verticalAlign=top;spacingLeft=4;spacingRight=4;overflow=hidden;rotatable=0;points=[[0,0.5],[1,0.5]];portConstraint=eastwest;" vertex="1" parent="sofHlhuOppqZi0QJz8ZP-15">
          <mxGeometry y="26" width="160" height="104" as="geometry" />
        </mxCell>
        <mxCell id="sofHlhuOppqZi0QJz8ZP-17" value="" style="line;strokeWidth=1;fillColor=none;align=left;verticalAlign=middle;spacingTop=-1;spacingLeft=3;spacingRight=3;rotatable=0;labelPosition=right;points=[];portConstraint=eastwest;strokeColor=inherit;" vertex="1" parent="sofHlhuOppqZi0QJz8ZP-15">
          <mxGeometry y="130" width="160" height="8" as="geometry" />
        </mxCell>
        <mxCell id="sofHlhuOppqZi0QJz8ZP-18" value="+ verifikasiPembayaran:()&#xa;+ mengelolaAkun()&#xa;+ mengelolaSurvei()" style="text;strokeColor=none;fillColor=none;align=left;verticalAlign=top;spacingLeft=4;spacingRight=4;overflow=hidden;rotatable=0;points=[[0,0.5],[1,0.5]];portConstraint=eastwest;" vertex="1" parent="sofHlhuOppqZi0QJz8ZP-15">
          <mxGeometry y="138" width="160" height="102" as="geometry" />
        </mxCell>
        <mxCell id="sofHlhuOppqZi0QJz8ZP-26" style="edgeStyle=orthogonalEdgeStyle;rounded=0;orthogonalLoop=1;jettySize=auto;html=1;endArrow=none;endFill=0;dashed=1;" edge="1" parent="1" source="sofHlhuOppqZi0QJz8ZP-19">
          <mxGeometry relative="1" as="geometry">
            <mxPoint x="400.0000000000001" y="270" as="targetPoint" />
          </mxGeometry>
        </mxCell>
        <mxCell id="sofHlhuOppqZi0QJz8ZP-19" value="user" style="swimlane;fontStyle=1;align=center;verticalAlign=top;childLayout=stackLayout;horizontal=1;startSize=26;horizontalStack=0;resizeParent=1;resizeParentMax=0;resizeLast=0;collapsible=1;marginBottom=0;" vertex="1" parent="1">
          <mxGeometry x="320" y="350" width="160" height="240" as="geometry" />
        </mxCell>
        <mxCell id="sofHlhuOppqZi0QJz8ZP-20" value="- iduser&#xa;- usernamne : string&#xa;- password : string&#xa;- email : String&#xa;- nama : string&#xa;- no_telp: string" style="text;strokeColor=none;fillColor=none;align=left;verticalAlign=top;spacingLeft=4;spacingRight=4;overflow=hidden;rotatable=0;points=[[0,0.5],[1,0.5]];portConstraint=eastwest;" vertex="1" parent="sofHlhuOppqZi0QJz8ZP-19">
          <mxGeometry y="26" width="160" height="104" as="geometry" />
        </mxCell>
        <mxCell id="sofHlhuOppqZi0QJz8ZP-21" value="" style="line;strokeWidth=1;fillColor=none;align=left;verticalAlign=middle;spacingTop=-1;spacingLeft=3;spacingRight=3;rotatable=0;labelPosition=right;points=[];portConstraint=eastwest;strokeColor=inherit;" vertex="1" parent="sofHlhuOppqZi0QJz8ZP-19">
          <mxGeometry y="130" width="160" height="8" as="geometry" />
        </mxCell>
        <mxCell id="sofHlhuOppqZi0QJz8ZP-22" value="+ verivikasiAkun()&#xa;+ editAkun()&#xa;+ mengelolaSurcei()&#xa;+mengisiSurvei()" style="text;strokeColor=none;fillColor=none;align=left;verticalAlign=top;spacingLeft=4;spacingRight=4;overflow=hidden;rotatable=0;points=[[0,0.5],[1,0.5]];portConstraint=eastwest;" vertex="1" parent="sofHlhuOppqZi0QJz8ZP-19">
          <mxGeometry y="138" width="160" height="102" as="geometry" />
        </mxCell>
        <mxCell id="sofHlhuOppqZi0QJz8ZP-32" value="" style="edgeStyle=orthogonalEdgeStyle;rounded=0;orthogonalLoop=1;jettySize=auto;html=1;endArrow=none;endFill=0;dashed=1;" edge="1" parent="1">
          <mxGeometry relative="1" as="geometry">
            <mxPoint x="400" y="270" as="sourcePoint" />
            <mxPoint x="180" y="270" as="targetPoint" />
          </mxGeometry>
        </mxCell>
        <mxCell id="sofHlhuOppqZi0QJz8ZP-33" value="" style="rounded=0;orthogonalLoop=1;jettySize=auto;html=1;endArrow=none;endFill=0;exitX=0.428;exitY=1.203;exitDx=0;exitDy=0;exitPerimeter=0;startArrow=block;startFill=0;dashed=1;" edge="1" parent="1" source="sofHlhuOppqZi0QJz8ZP-4">
          <mxGeometry relative="1" as="geometry">
            <mxPoint x="410" y="280" as="sourcePoint" />
            <mxPoint x="300" y="270" as="targetPoint" />
          </mxGeometry>
        </mxCell>
        <mxCell id="sofHlhuOppqZi0QJz8ZP-39" style="edgeStyle=none;rounded=0;orthogonalLoop=1;jettySize=auto;html=1;exitX=0.5;exitY=0;exitDx=0;exitDy=0;startArrow=none;startFill=0;endArrow=none;endFill=0;entryX=0.483;entryY=1.021;entryDx=0;entryDy=0;entryPerimeter=0;" edge="1" parent="1" source="sofHlhuOppqZi0QJz8ZP-35" target="sofHlhuOppqZi0QJz8ZP-22">
          <mxGeometry relative="1" as="geometry">
            <mxPoint x="400.42857142857144" y="600" as="targetPoint" />
          </mxGeometry>
        </mxCell>
        <mxCell id="sofHlhuOppqZi0QJz8ZP-35" value="Survei" style="swimlane;fontStyle=1;align=center;verticalAlign=top;childLayout=stackLayout;horizontal=1;startSize=26;horizontalStack=0;resizeParent=1;resizeParentMax=0;resizeLast=0;collapsible=1;marginBottom=0;" vertex="1" parent="1">
          <mxGeometry x="320" y="680" width="160" height="150" as="geometry" />
        </mxCell>
        <mxCell id="sofHlhuOppqZi0QJz8ZP-36" value="- idSurvei&#xa;- NamaSurvei" style="text;strokeColor=none;fillColor=none;align=left;verticalAlign=top;spacingLeft=4;spacingRight=4;overflow=hidden;rotatable=0;points=[[0,0.5],[1,0.5]];portConstraint=eastwest;" vertex="1" parent="sofHlhuOppqZi0QJz8ZP-35">
          <mxGeometry y="26" width="160" height="64" as="geometry" />
        </mxCell>
        <mxCell id="sofHlhuOppqZi0QJz8ZP-37" value="" style="line;strokeWidth=1;fillColor=none;align=left;verticalAlign=middle;spacingTop=-1;spacingLeft=3;spacingRight=3;rotatable=0;labelPosition=right;points=[];portConstraint=eastwest;strokeColor=inherit;" vertex="1" parent="sofHlhuOppqZi0QJz8ZP-35">
          <mxGeometry y="90" width="160" height="8" as="geometry" />
        </mxCell>
        <mxCell id="sofHlhuOppqZi0QJz8ZP-38" value="- mengelolaSurcei()&#xa;- mengisiSurvei()" style="text;strokeColor=none;fillColor=none;align=left;verticalAlign=top;spacingLeft=4;spacingRight=4;overflow=hidden;rotatable=0;points=[[0,0.5],[1,0.5]];portConstraint=eastwest;" vertex="1" parent="sofHlhuOppqZi0QJz8ZP-35">
          <mxGeometry y="98" width="160" height="52" as="geometry" />
        </mxCell>
        <mxCell id="sofHlhuOppqZi0QJz8ZP-40" value="0*" style="text;html=1;align=center;verticalAlign=middle;resizable=0;points=[];autosize=1;strokeColor=none;fillColor=none;" vertex="1" parent="1">
          <mxGeometry x="395" y="585" width="30" height="30" as="geometry" />
        </mxCell>
        <mxCell id="sofHlhuOppqZi0QJz8ZP-41" value="0" style="text;html=1;align=center;verticalAlign=middle;resizable=0;points=[];autosize=1;strokeColor=none;fillColor=none;" vertex="1" parent="1">
          <mxGeometry x="395" y="655" width="30" height="30" as="geometry" />
        </mxCell>
        <mxCell id="sofHlhuOppqZi0QJz8ZP-62" style="edgeStyle=none;rounded=0;orthogonalLoop=1;jettySize=auto;html=1;entryX=0.512;entryY=1.018;entryDx=0;entryDy=0;entryPerimeter=0;startArrow=diamondThin;startFill=0;endArrow=none;endFill=0;dashed=1;" edge="1" parent="1" source="sofHlhuOppqZi0QJz8ZP-52" target="sofHlhuOppqZi0QJz8ZP-61">
          <mxGeometry relative="1" as="geometry" />
        </mxCell>
        <mxCell id="sofHlhuOppqZi0QJz8ZP-52" value="Transaksi" style="swimlane;fontStyle=1;align=center;verticalAlign=top;childLayout=stackLayout;horizontal=1;startSize=26;horizontalStack=0;resizeParent=1;resizeParentMax=0;resizeLast=0;collapsible=1;marginBottom=0;" vertex="1" parent="1">
          <mxGeometry x="580" y="300" width="160" height="150" as="geometry" />
        </mxCell>
        <mxCell id="sofHlhuOppqZi0QJz8ZP-53" value="- statusPembayaran" style="text;strokeColor=none;fillColor=none;align=left;verticalAlign=top;spacingLeft=4;spacingRight=4;overflow=hidden;rotatable=0;points=[[0,0.5],[1,0.5]];portConstraint=eastwest;" vertex="1" parent="sofHlhuOppqZi0QJz8ZP-52">
          <mxGeometry y="26" width="160" height="64" as="geometry" />
        </mxCell>
        <mxCell id="sofHlhuOppqZi0QJz8ZP-54" value="" style="line;strokeWidth=1;fillColor=none;align=left;verticalAlign=middle;spacingTop=-1;spacingLeft=3;spacingRight=3;rotatable=0;labelPosition=right;points=[];portConstraint=eastwest;strokeColor=inherit;" vertex="1" parent="sofHlhuOppqZi0QJz8ZP-52">
          <mxGeometry y="90" width="160" height="8" as="geometry" />
        </mxCell>
        <mxCell id="sofHlhuOppqZi0QJz8ZP-55" value="- mengelolaSurcei()&#xa;- mengisiSurvei()" style="text;strokeColor=none;fillColor=none;align=left;verticalAlign=top;spacingLeft=4;spacingRight=4;overflow=hidden;rotatable=0;points=[[0,0.5],[1,0.5]];portConstraint=eastwest;" vertex="1" parent="sofHlhuOppqZi0QJz8ZP-52">
          <mxGeometry y="98" width="160" height="52" as="geometry" />
        </mxCell>
        <mxCell id="sofHlhuOppqZi0QJz8ZP-56" value="" style="edgeStyle=none;rounded=0;orthogonalLoop=1;jettySize=auto;html=1;startArrow=none;startFill=0;endArrow=none;endFill=0;" edge="1" parent="1" source="sofHlhuOppqZi0QJz8ZP-20" target="sofHlhuOppqZi0QJz8ZP-55">
          <mxGeometry relative="1" as="geometry" />
        </mxCell>
        <mxCell id="sofHlhuOppqZi0QJz8ZP-57" value="0*" style="text;html=1;align=center;verticalAlign=middle;resizable=0;points=[];autosize=1;strokeColor=none;fillColor=none;" vertex="1" parent="1">
          <mxGeometry x="480" y="400" width="30" height="30" as="geometry" />
        </mxCell>
        <mxCell id="sofHlhuOppqZi0QJz8ZP-58" value="0*" style="text;html=1;align=center;verticalAlign=middle;resizable=0;points=[];autosize=1;strokeColor=none;fillColor=none;" vertex="1" parent="1">
          <mxGeometry x="550" y="400" width="30" height="30" as="geometry" />
        </mxCell>
        <mxCell id="sofHlhuOppqZi0QJz8ZP-59" value="Pembyaran" style="swimlane;fontStyle=1;align=center;verticalAlign=top;childLayout=stackLayout;horizontal=1;startSize=26;horizontalStack=0;resizeParent=1;resizeParentMax=0;resizeLast=0;collapsible=1;marginBottom=0;" vertex="1" parent="1">
          <mxGeometry x="580" y="90" width="160" height="98" as="geometry" />
        </mxCell>
        <mxCell id="sofHlhuOppqZi0QJz8ZP-60" value="- idpembayaran : int&#xa;- totalPembyaran : int&#xa;- namaPembayar: string" style="text;strokeColor=none;fillColor=none;align=left;verticalAlign=top;spacingLeft=4;spacingRight=4;overflow=hidden;rotatable=0;points=[[0,0.5],[1,0.5]];portConstraint=eastwest;" vertex="1" parent="sofHlhuOppqZi0QJz8ZP-59">
          <mxGeometry y="26" width="160" height="64" as="geometry" />
        </mxCell>
        <mxCell id="sofHlhuOppqZi0QJz8ZP-61" value="" style="line;strokeWidth=1;fillColor=none;align=left;verticalAlign=middle;spacingTop=-1;spacingLeft=3;spacingRight=3;rotatable=0;labelPosition=right;points=[];portConstraint=eastwest;strokeColor=inherit;" vertex="1" parent="sofHlhuOppqZi0QJz8ZP-59">
          <mxGeometry y="90" width="160" height="8" as="geometry" />
        </mxCell>
        <mxCell id="sofHlhuOppqZi0QJz8ZP-63" value="1*" style="text;align=center;fontStyle=1;verticalAlign=middle;spacingLeft=3;spacingRight=3;strokeColor=none;rotatable=0;points=[[0,0.5],[1,0.5]];portConstraint=eastwest;" vertex="1" parent="1">
          <mxGeometry x="600" y="274" width="80" height="26" as="geometry" />
        </mxCell>
        <mxCell id="sofHlhuOppqZi0QJz8ZP-64" value="1*" style="text;align=center;fontStyle=1;verticalAlign=middle;spacingLeft=3;spacingRight=3;strokeColor=none;rotatable=0;points=[[0,0.5],[1,0.5]];portConstraint=eastwest;" vertex="1" parent="1">
          <mxGeometry x="610" y="188" width="80" height="26" as="geometry" />
        </mxCell>
      </root>
    </mxGraphModel>
  </diagram>
</mxfile>
